<svg aria-hidden="true" style="position:absolute;width:0;height:0" xmlns="http://www.w3.org/2000/svg" overflow="hidden"><defs><symbol id="close" viewBox="0 0 32 32"><path d="M23.733 10.304L22.229 8.8l-5.963 5.963L10.303 8.8l-1.504 1.504 5.963 5.963-5.963 5.963 1.504 1.504 5.963-5.963 5.963 5.963 1.504-1.504-5.963-5.963 5.963-5.963z"/></symbol><symbol id="menu" viewBox="0 0 32 32"><path d="M6.4 11.733V9.6h19.2v2.133H6.4zm0 5.334h19.2v-2.133H6.4v2.133zm0 5.333h19.2v-2.133H6.4V22.4z"/></symbol><symbol id="email" viewBox="0 0 32 32"><path d="M26.667 5.333H5.334A2.663 2.663 0 002.681 8l-.013 16c0 1.467 1.2 2.667 2.667 2.667h21.333c1.467 0 2.667-1.2 2.667-2.667V8c0-1.467-1.2-2.667-2.667-2.667zM26.133 11l-9.427 5.893a1.346 1.346 0 01-1.413 0L5.866 11a1.132 1.132 0 111.2-1.92l8.933 5.587 8.933-5.587a1.132 1.132 0 111.2 1.92z"/></symbol><symbol id="person" viewBox="0 0 32 32"><path d="M16 16c2.947 0 5.333-2.387 5.333-5.333S18.946 5.334 16 5.334c-2.947 0-5.333 2.387-5.333 5.333S13.054 16 16 16zm0 2.667c-3.56 0-10.667 1.787-10.667 5.333v1.333c0 .733.6 1.333 1.333 1.333h18.667c.733 0 1.333-.6 1.333-1.333V24c0-3.547-7.107-5.333-10.667-5.333z"/></symbol><symbol id="phone" viewBox="0 0 32 32"><path d="M24.881 19.773l-3.268-.373a2.561 2.561 0 00-2.11.733L17.136 22.5a19.357 19.357 0 01-8.478-8.478l2.38-2.38a2.561 2.561 0 00.733-2.11l-.373-3.242a2.575 2.575 0 00-2.56-2.277H6.612c-1.454 0-2.663 1.209-2.573 2.663.682 10.987 9.469 19.761 20.443 20.443 1.454.09 2.663-1.119 2.663-2.573V22.32a2.549 2.549 0 00-2.264-2.547z"/></symbol><symbol id="close-black" viewBox="0 0 32 32"><path d="M26.667 7.303l-1.97-1.97-7.808 7.808-7.808-7.808-1.97 1.97 7.808 7.808-7.808 7.808 1.97 1.97 7.808-7.808 7.808 7.808 1.97-1.97-7.808-7.808 7.808-7.808z"/></symbol><symbol id="icon-send" viewBox="0 0 32 32"><path fill="var(--color1, #fff)" d="M32 0L0 18l10.227 3.788L26 7 14.002 23.186l.01.004-.012-.004V32l5.735-6.691L27 28l5-28z"/></symbol><symbol id="logo-6" viewBox="0 0 48 32"><path d="M24.267 15.268a1.748 1.748 0 01-.306-1.102v-1.597c0-.49.101-.862.304-1.116s.55-.381 1.044-.38c.463 0 .793.108.987.325.212.277.316.615.292.955v.376h-.829v-.38a2.102 2.102 0 00-.024-.372.37.37 0 00-.119-.221.45.45 0 00-.3-.086.474.474 0 00-.316.091.435.435 0 00-.137.244 2.02 2.02 0 00-.033.395v1.939a1.08 1.08 0 00.106.544c.041.058.099.103.166.132s.141.039.214.031a.423.423 0 00.294-.088.398.398 0 00.124-.236c.019-.129.028-.259.026-.389v-.393h.829v.359c.023.355-.078.708-.287 1.004-.191.237-.515.356-.992.356s-.838-.127-1.042-.39zM27.719 15.284c-.209-.249-.314-.611-.314-1.091v-1.68c0-.475.105-.834.314-1.078s.56-.365 1.05-.364c.488 0 .836.121 1.046.364s.316.603.316 1.078v1.68c0 .475-.106.839-.319 1.089s-.56.376-1.042.376-.84-.127-1.05-.374zm1.437-.403a1.02 1.02 0 00.1-.497v-2.057a.984.984 0 00-.098-.488.416.416 0 00-.387-.163.42.42 0 00-.389.163.973.973 0 00-.1.488v2.067a.985.985 0 00.1.497.518.518 0 00.388.167.534.534 0 00.388-.167v-.01zM31.128 11.121h.893l.671 3.1.687-3.1h.869l.088 4.475h-.642l-.069-3.11-.663 3.11h-.515l-.687-3.121-.063 3.121h-.649l.081-4.475zM35.335 11.121h1.39c.801 0 1.202.424 1.202 1.271 0 .811-.422 1.217-1.265 1.215h-.474v1.989h-.858l.005-4.475zm1.188 1.913c.085.01.171.003.252-.021s.157-.065.22-.12a.775.775 0 00.123-.505 1.498 1.498 0 00-.041-.406.343.343 0 00-.172-.213.824.824 0 00-.383-.072h-.333v1.337h.333zM39.165 11.121h.922l.946 4.475h-.8l-.187-1.032h-.822l-.192 1.032h-.812l.946-4.475zm.788 2.925l-.321-1.878-.321 1.878h.642zM41.796 11.121h.601l1.15 2.553v-2.553h.712v4.475h-.572l-1.157-2.665v2.665h-.736l.002-4.475zM45.928 13.89l-.956-2.763h.805l.584 1.774.548-1.774h.788l-.944 2.762v1.706h-.824v-1.706zM25.592 17.553v.234h-.7v1.818h-.294v-1.818h-.704v-.234h1.698zM27.788 19.605h-.227a.098.098 0 01-.064-.02.109.109 0 01-.038-.047l-.202-.488h-.971l-.202.488a.137.137 0 01-.031.055.096.096 0 01-.064.02h-.227l.858-2.052h.299l.869 2.044zm-1.422-.762h.81l-.343-.835a1.678 1.678 0 01-.064-.193l-.033.109-.031.086-.34.834zM29.267 19.404c.054.003.107.003.161 0a1.061 1.061 0 00.26-.061c.038-.015.075-.033.115-.05v-.462h-.343c-.008.001-.017-.001-.025-.004s-.015-.007-.021-.013c-.006-.005-.01-.01-.013-.017s-.004-.014-.004-.021v-.158h.666v.787a1.207 1.207 0 01-.363.167c-.07.02-.142.034-.215.042a2.331 2.331 0 01-.251.013 1.227 1.227 0 01-.433-.076.977.977 0 01-.564-.54 1.114 1.114 0 01-.079-.426 1.147 1.147 0 01.077-.429.944.944 0 01.221-.325c.098-.092.215-.165.343-.213a1.33 1.33 0 01.46-.076c.08 0 .16.006.239.018a1.09 1.09 0 01.376.133c.053.032.103.068.149.107l-.082.127c-.007.012-.016.021-.028.028s-.025.011-.039.011a.11.11 0 01-.053-.016.891.891 0 01-.084-.049.954.954 0 00-.491-.119.93.93 0 00-.331.057.698.698 0 00-.412.418 1.042 1.042 0 000 .684.722.722 0 00.172.258.726.726 0 00.251.163.889.889 0 00.34.041zM32.003 19.371h.937v.234h-1.224v-2.053h.294l-.007 1.818zM33.916 19.605h-.294v-2.053h.294v2.053zM35.008 17.562a.146.146 0 01.045.037l1.255 1.547a.445.445 0 010-.073v-1.53h.256v2.061h-.148a.128.128 0 01-.064-.011.157.157 0 01-.046-.039l-1.253-1.545v1.596h-.246v-2.053h.153c.017 0 .033.003.048.01zM38.724 17.553v.226h-1.04v.678h.843v.218h-.843v.7h1.04v.226h-1.342v-2.048h1.342zM7.965 4.878l13.034 3.504v12.277L7.965 17.157V4.878zm-.836-1.047v13.922l14.704 3.954V7.787L7.129 3.832z"/><path d="M15.009 28.169L.303 24.212v-13.92l14.706 3.956V28.17zM7.372 4.72l12.864 3.46-5.471 5.18L1.899 9.899 7.371 4.72zm-.243-.889L.304 10.292l14.706 3.955 6.823-6.461L7.129 3.831zM15.837 27.386l5.996-5.678-5.996-1.614v7.291z"/></symbol><symbol id="logo-5" viewBox="0 0 41 32"><path d="M3.209 26.907c.159.197.244.445.239.699a1.114 1.114 0 01-.37.883 1.599 1.599 0 01-1.077.322H.107v-4.428h1.855c.366-.024.729.079 1.028.294a1.007 1.007 0 01.36.829c.011.244-.066.484-.215.677a1.005 1.005 0 01-.564.346c.251.046.478.18.64.379zm-2.222-.668h.793a.753.753 0 00.504-.147.519.519 0 00.17-.432.551.551 0 00-.168-.432.766.766 0 00-.519-.149h-.78v1.162zm1.375 1.698a.544.544 0 00.187-.45.565.565 0 00-.191-.455.813.813 0 00-.538-.16H.988v1.218h.842a.83.83 0 00.532-.154zM7 28.811l-1.032-1.73H5.58v1.73h-.888v-4.428h1.68c.424-.03.842.105 1.17.376a1.42 1.42 0 01.125 1.832c-.207.238-.49.397-.801.45l1.099 1.77H7zm-1.42-2.334h.726c.504 0 .756-.224.756-.67a.66.66 0 00-.186-.497.784.784 0 00-.571-.18H5.57l.008 1.348zM11.852 27.92h-1.769l-.312.891H8.84l1.624-4.378h1.006l1.618 4.378h-.931l-.306-.891zm-.237-.671l-.646-1.869-.646 1.869h1.293zM17.925 28.811h-.881L15.068 25.8v3.011h-.879v-4.428h.879l1.976 3.028v-3.028h.881v4.428zM22.954 27.751a1.91 1.91 0 01-.797.781c-.384.195-.809.29-1.239.279h-1.569v-4.428h1.569c.429-.011.854.082 1.239.272.337.171.615.44.797.772a2.588 2.588 0 010 2.324zm-1.008-.106a1.624 1.624 0 000-2.114 1.526 1.526 0 00-1.103-.376h-.612v2.866h.612a1.53 1.53 0 001.103-.376zM12.404-.246s11.373 4.311 11.132 10.549v10.552s-11.365-4.313-11.127-10.552L12.405-.246zM33.668 18.385a15.554 15.554 0 017.226-2.674v-3.303a14.84 14.84 0 00-7.226 5.977z"/><path d="M32.377 19.38a15.475 15.475 0 018.516-7.664V2.198S24.696 8.339 25.039 17.223v15.022s.722-.275 1.857-.79c0-.48 0-.965.052-1.452a15.627 15.627 0 015.429-10.625z"/><path d="M30.837 24.961c.085-1.042.275-2.072.567-3.076a14.548 14.548 0 00-3.43 9.074c.92-.444 1.991-.997 3.115-1.648a15.599 15.599 0 01-.252-4.35zM31.481 25.015a14.946 14.946 0 00.2 3.939c4.425-2.658 9.398-6.766 9.206-11.73v-.433a14.492 14.492 0 00-8.419 3.95 14.886 14.886 0 00-.987 4.274z"/></symbol><symbol id="logo-4" viewBox="0 0 48 32"><path d="M8.824 10.168h-.002c-1.613 0-2.92 1.274-2.92 2.846v.002c0 1.572 1.307 2.846 2.92 2.846h.002c1.613 0 2.92-1.274 2.92-2.846v-.002c0-1.572-1.307-2.846-2.92-2.846zM30.377 9.258c-.005-2.183-.896-4.275-2.48-5.819s-3.73-2.413-5.97-2.418c-2.241.004-4.389.873-5.973 2.417s-2.477 3.636-2.481 5.82v12.037S30.375 19.46 30.378 9.26v-.002zM-.017 25.246c.004 1.519.625 2.974 1.727 4.048s2.595 1.68 4.154 1.684c1.558-.004 3.051-.61 4.153-1.683s1.723-2.529 1.727-4.047v-8.376S-.017 18.15-.017 25.246zm5.88 1.501c-.305 0-.602-.088-.856-.253s-.451-.399-.567-.673a1.473 1.473 0 01.333-1.635 1.56 1.56 0 01.788-.411c.299-.058.608-.028.89.085s.522.306.691.553a1.477 1.477 0 01-.189 1.899 1.547 1.547 0 01-1.091.442v-.006zM17.868 25.816h-1.203v1.243h-.627v-3.041h1.98v.507h-1.353v.785h1.203v.505zm3.011-.209c0 .299-.053.562-.159.787a1.198 1.198 0 01-1.132.706c-.252 0-.477-.061-.675-.182s-.351-.294-.459-.518a1.782 1.782 0 01-.165-.777v-.15c0-.299.054-.562.161-.789a1.21 1.21 0 01.457-.524c.198-.122.423-.184.677-.184s.478.061.675.184c.198.121.35.296.457.524.109.227.163.489.163.787v.136zm-.635-.138c0-.319-.057-.561-.171-.727s-.277-.249-.489-.249a.56.56 0 00-.487.246c-.114.163-.172.402-.173.718v.148c0 .311.057.551.171.723s.279.257.493.257c.21 0 .372-.082.485-.246.113-.166.17-.406.171-.723v-.148zm2.668.792c0-.118-.042-.209-.125-.272s-.234-.131-.451-.2a3.295 3.295 0 01-.516-.209c-.345-.187-.518-.438-.518-.754 0-.165.046-.311.138-.438a.916.916 0 01.399-.303c.174-.072.369-.109.585-.109.217 0 .411.04.581.119.17.078.301.189.395.332a.863.863 0 01.142.489h-.627a.41.41 0 00-.131-.324c-.088-.078-.211-.117-.37-.117a.576.576 0 00-.357.098.303.303 0 00-.127.255c0 .099.049.182.148.249.1.067.247.129.441.188.356.107.616.24.779.399s.244.356.244.593c0 .263-.099.47-.299.62-.199.149-.467.224-.804.224-.234 0-.447-.042-.639-.127a1.027 1.027 0 01-.441-.353.908.908 0 01-.15-.518h.629c0 .335.2.503.601.503a.59.59 0 00.349-.09.296.296 0 00.125-.255zm3.343-1.736h-.931v2.533h-.627v-2.533h-.919v-.507h2.477v.507zm2.189 1.216h-1.203v.814h1.412v.503h-2.038v-3.041h2.034v.507h-1.408v.725h1.203v.491zm1.702.205h-.499v1.113h-.627v-3.041h1.13c.359 0 .636.08.831.24s.292.386.292.679a.93.93 0 01-.136.52.913.913 0 01-.407.33l.658 1.243v.029h-.672l-.57-1.113zm-.499-.508h.505a.52.52 0 00.365-.119.433.433 0 00.129-.332.457.457 0 00-.123-.338c-.081-.082-.205-.123-.374-.123h-.503v.913zm3.797.549v1.071h-.627v-3.041h1.186c.228 0 .429.042.601.125a.919.919 0 01.401.357.99.99 0 01.14.524c0 .298-.102.533-.307.706-.203.171-.485.257-.846.257h-.549zm0-.507h.56c.166 0 .292-.039.378-.117.088-.078.131-.189.131-.334 0-.149-.044-.27-.131-.361s-.209-.139-.363-.142h-.575v.955zm3.964.261h-1.203v.814h1.412v.503h-2.038v-3.041h2.034v.507h-1.408v.725h1.203v.491zm2.907-1.216h-.931v2.533h-.627v-2.533h-.919v-.507h2.477v.507zm2.189 1.216h-1.203v.814h1.412v.503h-2.038v-3.041h2.034v.507h-1.408v.725h1.203v.491zm1.702.205h-.499v1.113h-.627v-3.041h1.13c.359 0 .636.08.831.24s.292.386.292.679a.93.93 0 01-.136.52.913.913 0 01-.407.33l.658 1.243v.029h-.672l-.57-1.113zm-.5-.508h.505a.52.52 0 00.365-.119.433.433 0 00.129-.332.457.457 0 00-.123-.338c-.081-.082-.205-.123-.374-.123h-.503v.913zm3.683.823c0-.118-.041-.209-.125-.272s-.234-.131-.451-.2a3.295 3.295 0 01-.516-.209c-.345-.187-.518-.438-.518-.754 0-.165.046-.311.138-.438a.916.916 0 01.399-.303c.174-.072.369-.109.585-.109.217 0 .411.04.581.119.17.078.301.189.395.332a.863.863 0 01.142.489h-.627a.41.41 0 00-.131-.324c-.088-.078-.211-.117-.37-.117a.576.576 0 00-.357.098.303.303 0 00-.127.255c0 .099.049.182.148.249.1.067.247.129.441.188.356.107.616.24.779.399s.244.356.244.593c0 .263-.099.47-.299.62-.199.149-.467.224-.804.224-.234 0-.447-.042-.639-.127a1.027 1.027 0 01-.441-.353.908.908 0 01-.15-.518h.629c0 .335.2.503.601.503a.59.59 0 00.349-.09.296.296 0 00.125-.255z"/></symbol><symbol id="logo-3" viewBox="0 0 37 32"><path d="M7.966 31.251a.088.088 0 01.059.025l.153.161c-.119.13-.266.234-.431.305a1.532 1.532 0 01-.611.109 1.496 1.496 0 01-.574-.102 1.25 1.25 0 01-.712-.733 1.618 1.618 0 01-.098-.571c-.003-.195.033-.39.105-.573.067-.166.168-.317.297-.445.131-.126.287-.224.459-.29.189-.07.389-.104.591-.102.188-.004.375.027.549.093.152.063.291.15.412.257l-.128.171a.122.122 0 01-.033.031.084.084 0 01-.052.013.123.123 0 01-.056-.018l-.069-.046-.096-.058a.978.978 0 00-.302-.103 1.238 1.238 0 00-.228-.018 1.12 1.12 0 00-.425.077.96.96 0 00-.333.215.997.997 0 00-.216.343c-.054.145-.08.298-.078.452-.002.156.024.312.078.46.047.126.119.242.212.341a.863.863 0 00.318.212c.125.049.259.074.394.073.078.001.156-.004.234-.015a.87.87 0 00.354-.122c.054-.034.104-.072.151-.113a.115.115 0 01.073-.029zM12.388 30.445c.002.194-.033.386-.103.567-.062.165-.161.315-.288.44s-.282.224-.452.289a1.711 1.711 0 01-1.164 0 1.281 1.281 0 01-.741-.735 1.61 1.61 0 010-1.136c.065-.166.164-.317.291-.447.128-.121.281-.216.45-.279.374-.139.79-.139 1.164 0 .17.066.324.165.452.29.126.127.224.276.289.44.071.183.106.376.103.571zm-.402 0a1.313 1.313 0 00-.073-.456.898.898 0 00-.528-.556 1.23 1.23 0 00-.846 0 .89.89 0 00-.323.215.937.937 0 00-.207.341 1.465 1.465 0 000 .912.893.893 0 00.53.554c.273.097.573.097.846 0a.884.884 0 00.528-.554c.051-.147.076-.301.073-.456zM15.405 30.923l.04.102a3.46 3.46 0 01.044-.102.933.933 0 01.05-.1l.978-1.694c.019-.029.036-.047.056-.053a.217.217 0 01.08-.009h.289v2.755h-.343v-2.026-.086a.753.753 0 010-.095l-.984 1.718c-.012.026-.033.047-.058.063s-.054.023-.084.023h-.056a.154.154 0 01-.141-.086l-1.013-1.729V31.817h-.331v-2.75h.289a.24.24 0 01.08.009c.024.011.043.03.054.053l.999 1.696c.02.031.036.064.05.098zM19.086 30.786v1.032h-.383v-2.752h.854a1.67 1.67 0 01.477.06.912.912 0 01.337.171.699.699 0 01.191.27.905.905 0 01.065.352.84.84 0 01-.071.352.744.744 0 01-.207.275.936.936 0 01-.339.182 1.498 1.498 0 01-.461.064l-.463-.007zm0-.296h.463a.992.992 0 00.297-.042.617.617 0 00.214-.119.488.488 0 00.13-.182.579.579 0 00.046-.232.507.507 0 00-.172-.412.766.766 0 00-.515-.148h-.463v1.134zM24.231 31.822h-.302a.133.133 0 01-.084-.026.164.164 0 01-.05-.064l-.26-.666h-1.307l-.27.666a.145.145 0 01-.048.062.132.132 0 01-.086.027h-.302l1.148-2.756h.398l1.164 2.756zm-1.895-1.023h1.08l-.456-1.122a1.828 1.828 0 01-.086-.259l-.044.144c-.013.044-.029.084-.042.117l-.452 1.12zM25.885 29.079a.16.16 0 01.057.049l1.675 2.077v-.097V29.066h.343v2.756h-.191a.173.173 0 01-.078-.016.2.2 0 01-.061-.051l-1.673-2.075a.753.753 0 010 .095v2.048h-.343v-2.756h.203a.163.163 0 01.069.013zM30.781 30.726v1.094h-.383v-1.094l-1.059-1.66h.343a.124.124 0 01.082.024.256.256 0 01.052.062l.662 1.071a1.256 1.256 0 01.117.245l.05-.119c.019-.043.04-.085.065-.126l.653-1.078a.274.274 0 01.05-.058.116.116 0 01.082-.027h.346l-1.06 1.667zM15.215 24.442c.167.02.335.036.505.051 2.583-1.101 4.768-2.902 6.282-5.18s2.29-4.929 2.231-7.624l-2.846-2.712c.579 2.869.308 5.836-.782 8.567s-2.956 5.12-5.389 6.898z"/><path d="M14.199 24.316l.076.015c2.6-1.772 4.583-4.247 5.691-7.104s1.292-5.965.526-8.922l-4.054-3.862c1.64 3.175 2.3 6.728 1.903 10.246s-1.833 6.857-4.143 9.628zM27.948 14.873c-.689 2.961-2.362 5.632-4.77 7.616a15.094 15.094 0 01-2.266 1.55c1.961-.549 3.764-1.52 5.269-2.838s2.672-2.947 3.412-4.763l-1.644-1.565z"/><path d="M27.303 14.437l-2.341-2.23c-.045 2.543-.804 5.028-2.198 7.197s-3.372 3.943-5.729 5.137h.012a14 14 0 001.572-.089c2.203-.857 4.148-2.219 5.664-3.967s2.553-3.825 3.021-6.047zM14.538 2.813L11.745.149c-2.497.919-4.644 2.535-6.161 4.636s-2.332 4.589-2.34 7.139c.009 2.818 1.005 5.552 2.829 7.77s4.372 3.793 7.242 4.476c2.561-2.973 4.061-6.647 4.281-10.488s-.851-7.648-3.058-10.869zM33.756 14.027c-.01-3.343-1.409-6.546-3.89-8.91s-5.843-3.696-9.352-3.706a13.655 13.655 0 00-4.741.841l17.099 16.291c.585-1.44.885-2.971.884-4.515z"/></symbol><symbol id="logo-2" viewBox="0 0 37 32"><path d="M16.64 1.806h.084c.156 0 .324.016.49.03.734.052 1.463.162 2.179.329V.403a12.97 12.97 0 00-2.25-.358 18.11 18.11 0 00-.909-.044h-.263a18.35 18.35 0 00-4.515.582 18.3 18.3 0 00-4.79 1.948v17.475a19.484 19.484 0 014.566-1.779 19.948 19.948 0 013.833-.588h.051c.216-.011.433-.017.655-.019v-1.79a21.155 21.155 0 00-4.982.662 23.81 23.81 0 00-1.731.513l-.623.211V3.591l.266-.128a17.409 17.409 0 016.471-1.651.523.523 0 01.056 0c.248-.013.497-.019.741-.019h.28c.129.003.258.006.388.014z"/><path d="M21.03 3.651a15.823 15.823 0 01-2.606-.211c-.277-.047-.55-.103-.814-.164v17.275a13.82 13.82 0 003.425.404 18.396 18.396 0 004.515-.581 18.362 18.362 0 004.792-1.948V1.263a19.58 19.58 0 01-4.564 1.781 19.388 19.388 0 01-4.747.609zm6.907.299l.623-.21v13.63l-.266.128a17.055 17.055 0 01-3.184 1.144c-1.331.344-2.7.522-4.074.527-.411 0-.819-.017-1.214-.052l-.427-.038V5.062l.497.033c.361.023.735.034 1.141.034a21.092 21.092 0 005.173-.663 26.802 26.802 0 001.731-.518zM7.877 25.977a.912.912 0 00-.693-.28 1.034 1.034 0 00-.4.075.91.91 0 00-.512.518 1.023 1.023 0 00-.072.387v2.335c-.006.165.026.328.092.479.055.12.135.226.234.313a.815.815 0 00.321.166c.114.032.231.048.349.049a.972.972 0 00.892-.61.951.951 0 00.075-.372v-.261h-.61v.208a.528.528 0 01-.036.208.359.359 0 01-.089.131.365.365 0 01-.128.067.425.425 0 01-.128.022.314.314 0 01-.286-.125.548.548 0 01-.081-.313v-2.177a.738.738 0 01.075-.349.31.31 0 01.299-.141.33.33 0 01.272.131c.068.09.104.2.101.313v.202h.604v-.238a1.093 1.093 0 00-.279-.737zM11.502 25.95a1.051 1.051 0 00-1.38 0 .961.961 0 00-.237.327 1.099 1.099 0 00-.089.452v2.239a1.08 1.08 0 00.089.459c.055.12.136.227.237.313a.94.94 0 00.322.197 1.028 1.028 0 00.728 0c.121-.044.233-.111.33-.197a.948.948 0 00.23-.313 1.08 1.08 0 00.089-.459v-2.239a1.08 1.08 0 00-.089-.452 1.015 1.015 0 00-.23-.327zm-.284 3.019a.405.405 0 01-.121.324.445.445 0 01-.574 0 .397.397 0 01-.121-.324V26.73a.405.405 0 01.121-.324.445.445 0 01.574 0 .397.397 0 01.121.324v2.239zM16.265 29.969V25.73h-.587l-.771 2.244h-.011l-.777-2.244h-.581v4.239h.606V27.39h.011l.593 1.823h.302l.598-1.823h.011v2.579h.606zM19.705 26.027a.844.844 0 00-.342-.232 1.363 1.363 0 00-.439-.066h-.9v4.239h.604v-1.656h.311c.189.009.376-.031.545-.116a.882.882 0 00.332-.324 1.02 1.02 0 00.139-.369c.024-.16.035-.321.033-.482a2.421 2.421 0 00-.059-.606.898.898 0 00-.223-.39zm-.311 1.293a.547.547 0 01-.056.221.346.346 0 01-.156.149.619.619 0 01-.285.053h-.276v-1.441h.311a.578.578 0 01.272.053.349.349 0 01.142.157.62.62 0 01.053.236v.282c0 .099.006.2 0 .291h-.006zM22.566 25.73h-.495l-.934 4.239h.604l.177-.911h.823l.177.911h.604l-.957-4.239zm-.557 2.751l.297-1.537h.011l.296 1.537h-.604zM26.469 28.284h-.011l-.912-2.554h-.581v4.239h.604V27.42h.012l.923 2.549h.568V25.73h-.604v2.554zM30.16 25.73l-.486 1.685h-.012l-.486-1.685h-.64l.83 2.447v1.792h.604v-1.792l.83-2.447h-.64zM6.192 31.166h.291v.817h.198v-.817h.29v-.167h-.778v.167zM8.64 30.999l-.381.984h.21l.081-.224h.392l.084.224h.215l-.391-.984h-.21zm-.032.594l.134-.365.134.365h-.268zM11.059 31.62h.227v.127a.38.38 0 01-.233.083.244.244 0 01-.209-.093.411.411 0 01-.073-.257c0-.219.095-.329.283-.329a.206.206 0 01.222.157l.195-.038c-.042-.192-.181-.289-.417-.289a.495.495 0 00-.344.127.494.494 0 00-.141.379.532.532 0 00.126.369.477.477 0 00.374.144.59.59 0 00.417-.157v-.388h-.427v.166zM13.529 30.999h-.199v.984h.69v-.167h-.49v-.817zM15.618 30.999h-.199v.984h.199v-.984zM17.661 31.656l-.403-.657h-.193v.984h.185v-.643l.395.643h.198v-.984h-.182v.657zM19.507 31.549h.49v-.167h-.49v-.216h.528v-.167h-.727v.984h.747v-.167h-.548v-.266zM23.984 31.387h-.388v-.388h-.198v.984h.198v-.43h.388v.43h.198v-.984h-.198v.388zM25.842 31.549h.492v-.167h-.492v-.216h.529v-.167h-.727v.984h.746v-.167h-.548v-.266zM28.36 31.55c.171-.027.258-.117.258-.274a.236.236 0 00-.096-.219.553.553 0 00-.288-.058h-.417v.984h.198v-.412h.039a.261.261 0 01.123.022.21.21 0 01.07.072l.215.313h.237l-.12-.192a.685.685 0 00-.218-.236zm-.199-.137h-.146v-.247h.156a.526.526 0 01.201.023c.014.013.026.029.033.046a.133.133 0 01-.005.111.128.128 0 01-.037.043.547.547 0 01-.201.023zM30.26 31.549h.49v-.167h-.49v-.216h.529v-.167h-.729v.984h.747v-.167h-.548v-.266z"/></symbol><symbol id="logo-1" viewBox="0 0 36 32"><path d="M7.849.055l4.99 4.724h13.919v13.177l4.99 4.724V.055H7.849z"/><path d="M3.752 4.58v21.978h23.216v-8.736L12.986 4.585 3.752 4.58zm18.794 18.763H7.426V8.561h1.069v13.781h14.051v1.001zM10.438 30.635l.558-1.15h.467l-.813 1.534v.894h-.423v-.894l-.815-1.534h.468l.558 1.15zm2.397.711h-.94l-.197.565h-.438l.917-2.427h.378l.919 2.427h-.44l-.198-.565zm-.822-.34h.704l-.352-1.007-.352 1.007zm2.484.25c0-.112.031-.215.092-.308.061-.095.182-.206.362-.335a1.539 1.539 0 01-.198-.303.593.593 0 01-.055-.242c0-.19.058-.34.173-.45s.271-.167.467-.167c.177 0 .321.052.433.157.113.103.17.232.17.385a.539.539 0 01-.077.28.91.91 0 01-.252.253l-.165.12.468.553a.965.965 0 00.102-.445h.352c0 .299-.07.544-.21.735l.357.422h-.47l-.137-.162c-.173.13-.38.195-.62.195s-.432-.063-.577-.19a.638.638 0 01-.215-.498zm.803.365a.618.618 0 00.383-.137l-.53-.625-.052.037c-.133.101-.2.217-.2.347 0 .112.036.203.108.273s.169.105.29.105zm-.223-1.563c0 .093.057.211.172.352l.185-.127.052-.042a.299.299 0 00.103-.235.214.214 0 00-.072-.162.25.25 0 00-.182-.068c-.079 0-.142.027-.188.08s-.07.121-.07.202zm4.409 1.063c-.024.259-.12.461-.287.607-.167.144-.388.217-.665.217a.959.959 0 01-.512-.137c-.147-.092-.26-.223-.34-.392s-.122-.365-.125-.588v-.227c0-.229.041-.431.122-.605s.197-.309.348-.403a.983.983 0 01.527-.142c.268 0 .483.073.647.218s.258.351.285.617h-.42c-.02-.174-.071-.3-.153-.377-.081-.078-.201-.117-.358-.117a.492.492 0 00-.423.202c-.098.133-.148.33-.15.588v.215c0 .262.047.462.14.6a.468.468 0 00.413.207c.166 0 .29-.037.373-.112s.136-.198.158-.372h.42zm2.316-.36c0 .238-.041.447-.123.627a.932.932 0 01-.353.413.966.966 0 01-.527.143.987.987 0 01-.527-.143.968.968 0 01-.357-.412 1.455 1.455 0 01-.127-.615v-.137c0-.237.042-.446.125-.627a.944.944 0 01.355-.415c.153-.097.329-.145.527-.145s.373.048.525.143a.923.923 0 01.355.41c.083.178.126.385.127.622v.135zm-.422-.126c0-.269-.051-.475-.153-.619a.498.498 0 00-.432-.215.499.499 0 00-.428.215c-.102.142-.154.344-.157.605v.14c0 .267.052.473.155.619a.502.502 0 00.433.218c.187 0 .33-.071.43-.213.101-.142.152-.35.152-.623v-.127z"/></symbol><symbol id="linkedin" viewBox="0 0 32 32"><path d="M31.992 32v-.001H32V20.263c0-5.741-1.236-10.164-7.948-10.164-3.227 0-5.392 1.771-6.276 3.449h-.093v-2.913h-6.364v21.364h6.627V21.42c0-2.785.528-5.479 3.977-5.479 3.399 0 3.449 3.179 3.449 5.657v10.401h6.62zM.528 10.636h6.635V32H.528V10.636zM3.843 0C1.722 0 0 1.721 0 3.843s1.721 3.879 3.843 3.879c2.121 0 3.843-1.757 3.843-3.879A3.846 3.846 0 003.843 0z"/></symbol><symbol id="facebook" viewBox="0 0 32 32"><path d="M21.329 5.313h2.921V.225C23.746.156 22.013 0 19.994 0c-4.212 0-7.097 2.649-7.097 7.519V12H8.249v5.688h4.648V32h5.699V17.689h4.46l.708-5.688h-5.169V8.082c.001-1.644.444-2.769 2.735-2.769z"/></symbol><symbol id="twitter" viewBox="0 0 32 32"><path d="M32 6.078c-1.19.522-2.458.868-3.78 1.036a6.523 6.523 0 002.886-3.626 13.11 13.11 0 01-4.16 1.588A6.574 6.574 0 0022.154 3c-3.632 0-6.556 2.948-6.556 6.562 0 .52.044 1.02.152 1.496-5.454-.266-10.28-2.88-13.522-6.862a6.605 6.605 0 00-.898 3.316 6.57 6.57 0 002.914 5.452 6.479 6.479 0 01-2.964-.808v.072c0 3.188 2.274 5.836 5.256 6.446a6.548 6.548 0 01-1.72.216 5.8 5.8 0 01-1.242-.112c.85 2.598 3.262 4.508 6.13 4.57a13.182 13.182 0 01-8.134 2.798c-.538 0-1.054-.024-1.57-.09A18.469 18.469 0 0010.064 29c12.072 0 18.672-10 18.672-18.668 0-.29-.01-.57-.024-.848A13.087 13.087 0 0032 6.078z"/></symbol><symbol id="instagram" viewBox="0 0 32 32"><path d="M31.969 9.408c-.075-1.7-.35-2.869-.744-3.882a7.806 7.806 0 00-1.851-2.838A7.867 7.867 0 0026.542.844C25.523.45 24.36.175 22.66.1 20.947.019 20.403 0 16.059 0s-4.888.019-6.595.094c-1.7.075-2.869.35-3.882.744a7.803 7.803 0 00-2.838 1.85A7.867 7.867 0 00.9 5.52C.506 6.539.231 7.702.156 9.402c-.081 1.713-.1 2.257-.1 6.601s.019 4.888.094 6.595c.075 1.7.35 2.869.744 3.882a7.895 7.895 0 001.85 2.838 7.867 7.867 0 002.832 1.844c1.019.394 2.182.669 3.882.744 1.706.075 2.25.094 6.595.094s4.888-.019 6.595-.094c1.7-.075 2.869-.35 3.882-.744a8.184 8.184 0 004.682-4.682c.394-1.019.669-2.182.744-3.882.075-1.707.094-2.251.094-6.595s-.006-4.888-.081-6.595zm-2.882 13.065c-.069 1.563-.331 2.407-.55 2.969a5.31 5.31 0 01-3.038 3.038c-.563.219-1.413.481-2.969.55-1.688.075-2.194.094-6.464.094s-4.782-.019-6.464-.094c-1.563-.069-2.407-.331-2.969-.55a4.926 4.926 0 01-1.838-1.194 4.974 4.974 0 01-1.194-1.838c-.219-.563-.481-1.413-.55-2.969-.075-1.688-.094-2.194-.094-6.464s.019-4.782.094-6.464c.069-1.563.331-2.407.55-2.969a4.868 4.868 0 011.2-1.838A4.974 4.974 0 016.639 3.55c.563-.219 1.413-.481 2.969-.55 1.688-.075 2.194-.094 6.464-.094 4.276 0 4.782.019 6.464.094 1.563.069 2.407.331 2.969.55a4.914 4.914 0 011.838 1.194 4.974 4.974 0 011.194 1.838c.219.563.481 1.413.55 2.969.075 1.688.094 2.194.094 6.464s-.019 4.77-.094 6.458z"/><path d="M16.059 7.783c-4.538 0-8.22 3.682-8.22 8.22s3.682 8.22 8.22 8.22c4.539 0 8.22-3.682 8.22-8.22s-3.682-8.22-8.22-8.22zm0 13.552a5.333 5.333 0 010-10.664 5.333 5.333 0 010 10.664zM26.524 7.458a1.919 1.919 0 11-3.838 0 1.919 1.919 0 013.838 0z"/></symbol><symbol id="astronaut" viewBox="0 0 32 32"><path fill="var(--color2, #2196f3)" d="M31.974 4.524a.534.534 0 00-.43-.363l-1.91-.278-.855-1.731c-.179-.365-.777-.365-.956 0l-.855 1.731-1.91.278a.535.535 0 00-.296.91l1.383 1.348-.326 1.903c-.034.2.048.402.212.522a.53.53 0 00.562.04l1.709-.899 1.709.899a.536.536 0 00.775-.563l-.326-1.903 1.383-1.348a.536.536 0 00.135-.547zm-2.463 1.327a.534.534 0 00-.153.472l.191 1.114-1-.526a.533.533 0 00-.498 0l-1.001.526.191-1.114a.534.534 0 00-.153-.472l-.81-.789 1.119-.163a.532.532 0 00.402-.292l.5-1.013.5 1.013a.535.535 0 00.402.292l1.119.163-.809.789zM26.133 20.522h-1.067v1.067h1.067v-1.067zM26.133 22.656h-1.067v1.067h1.067v-1.067zM27.2 21.589h-1.067v1.067H27.2v-1.067zM25.067 21.589H24v1.067h1.067v-1.067zM22.4 26.389h-1.067v1.067H22.4v-1.067zM22.4 28.522h-1.067v1.067H22.4v-1.067zM23.467 27.456H22.4v1.067h1.067v-1.067zM21.333 27.456h-1.067v1.067h1.067v-1.067zM16 24.256h-1.067v1.067H16v-1.067zM16 26.389h-1.067v1.067H16v-1.067zM17.067 25.322H16v1.067h1.067v-1.067zM14.933 25.322h-1.067v1.067h1.067v-1.067zM5.866 6.122H4.799v1.067h1.067V6.122zM5.866 8.255H4.799v1.067h1.067V8.255z"/><path fill="var(--color2, #2196f3)" d="M6.933 7.189H5.866v1.067h1.067V7.189zM4.8 7.189H3.733v1.067H4.8V7.189z"/><path fill="var(--color3, #212121)" d="M24.715 14.159a1.775 1.775 0 00-1.188-.705 1.778 1.778 0 00-1.34.352l-1.252.96-1.898 1.417-1.358-.541c2.421-1.086 4.114-3.508 4.114-6.32 0-3.823-3.123-6.933-6.961-6.933s-6.961 3.11-6.961 6.933a6.86 6.86 0 001.12 3.758l-2.764-.024h-.005c-.009 0-.015.004-.023.005a.515.515 0 00-.155.031l-.038.013c-.006.003-.013.003-.019.006l-3.233 1.596-.001.001-1.893.911a.397.397 0 00-.063.035 1.779 1.779 0 00-.598 2.295c.22.429.595.745 1.056.889a1.776 1.776 0 001.378-.128l1.388-.738 2.264-1.169 1.357-.008L2.2 22.211l-.002.001-1.339 1.333c-.316.315-.49.732-.49 1.178s.174.863.49 1.179c.325.323.752.485 1.179.485s.854-.162 1.18-.485l1.314-1.309 1.741-1.3.901.897-1.762 1.754-.002.001-1.339 1.333c-.316.315-.49.732-.49 1.178s.174.863.49 1.179c.325.323.753.485 1.18.485s.855-.162 1.18-.485l3.482-3.467.001-.002 1.01-1-.004-.004c.006-.006.015-.009.022-.015l5.166-5.658 3.471.494a.52.52 0 00.262-.033c.018-.006.033-.015.05-.023.019-.01.039-.015.058-.027l3.213-2.133c.012-.008.018-.021.029-.029.013-.01.029-.014.041-.026l1.271-1.191c.662-.62.753-1.635.212-2.362zM2.13 17.77a.714.714 0 01-.558.052.717.717 0 01-.213-1.26l1.314-.632.449 1.313-.992.527zm3.498-1.828l-1.548.8-.439-1.283 2.027-1.001-.04 1.484zm15.099-6.62a5.79 5.79 0 01-.599 2.559l-4.181-1.899a1.863 1.863 0 00-.788-1.388l1.464-4.86c2.378.756 4.105 2.974 4.105 5.588zm-11.789 0c0-3.235 2.644-5.867 5.894-5.867.253 0 .5.021.745.052l-1.432 4.754c-.019-.001-.037-.006-.057-.006-1.033 0-1.873.837-1.873 1.867s.84 1.867 1.873 1.867c.694 0 1.294-.383 1.618-.945l3.862 1.755a5.894 5.894 0 01-4.737 2.39c-3.25 0-5.894-2.632-5.894-5.867zm5.956.8c0 .441-.362.8-.806.8s-.806-.359-.806-.8c0-.441.362-.8.806-.8s.806.359.806.8zM2.465 25.146a.608.608 0 01-.854.001.592.592 0 010-.844l.962-.959.851.848-.959.955zm3.214 3.734a.608.608 0 01-.855.001.592.592 0 010-.844l.963-.959.852.848-.96.955zm3.481-3.469l-.002.001-1.765 1.76-.852-.848 1.763-1.755.002-.001c.04-.04.065-.088.09-.135.007-.014.02-.026.026-.04.017-.041.019-.085.026-.129.003-.025.014-.047.014-.073 0-.036-.013-.07-.02-.106-.006-.032-.006-.065-.019-.095a.55.55 0 00-.091-.138c-.01-.012-.014-.027-.025-.038h-.001l-.001-.002-1.607-1.6c-.017-.017-.039-.024-.058-.038a.507.507 0 00-.087-.058.515.515 0 00-.093-.033.507.507 0 00-.103-.02.5.5 0 00-.095.005.53.53 0 00-.104.02.477.477 0 00-.094.045c-.02.011-.042.015-.061.029L4.23 23.486l-.901-.897 2.399-2.386 4.361 4.289-.928.919zm6.819-7.017c-.015-.002-.03.004-.045.003a.556.556 0 00-.3.075.492.492 0 00-.083.061c-.013.011-.028.017-.04.029l-4.698 5.146-4.328-4.257 2.833-2.818a.534.534 0 00-.379-.911v-.001l-2.219.013.028-1.607 3.104.027a6.947 6.947 0 004.981 2.101c.437 0 .864-.045 1.279-.123.04.032.079.065.13.085l2.41.96.152.758.178.885-3.003-.427zm4.041.178l-.313-1.558 1.446-1.08.947 1.257-2.08 1.381zm3.754-2.831l-.838.785-.931-1.236.831-.637a.735.735 0 01.543-.143.718.718 0 01.48.284.713.713 0 01-.085.947z"/><path fill="var(--color3, #212121)" d="M13.602 18.544l-2.143-2.133a.534.534 0 00-.753 0l-2.142 2.133a.537.537 0 000 .756l2.142 2.133a.536.536 0 00.753 0l2.143-2.133a.535.535 0 000-.756zm-2.519 1.759l-1.387-1.381 1.387-1.381 1.387 1.381-1.387 1.381zM17.164 5.071l-.258 1.036c.071.018 1.738.452 1.738 2.149h1.067c0-2.017-1.666-2.965-2.547-3.185zM19.711 9.322h-1.067v1.067h1.067V9.322z"/></symbol><symbol id="diagram" viewBox="0 0 32 32"><path fill="var(--color2, #2196f3)" d="M14.926 14.965h1.066v4.798h-1.066v-4.797zM19.19 17.097h1.066v2.665H19.19v-2.665zM10.661 18.696h1.066v1.066h-1.066v-1.066zM7.463 18.163h1.066v1.599H7.463v-1.599z"/><path fill="var(--color3, #212121)" d="M1.599 28.291h25.587a1.6 1.6 0 001.599-1.599V24.56a1.6 1.6 0 00-1.599-1.599h-.533V9.668L29.681 6.8a1.608 1.608 0 10-.746-.763L26.654 8.2V6.97a1.6 1.6 0 00-1.599-1.599H3.733A1.6 1.6 0 002.134 6.97v15.992h-.533a1.6 1.6 0 00-1.599 1.599v2.132a1.6 1.6 0 001.599 1.599zM30.384 4.837a.533.533 0 110 1.067.533.533 0 010-1.067zM3.198 6.969c0-.294.239-.533.533-.533h21.322c.294 0 .533.239.533.533v2.239l-1.066 1.013V8.035a.533.533 0 00-.533-.533H4.797a.533.533 0 00-.533.533v13.326c0 .294.239.533.533.533h19.19a.533.533 0 00.533-.533v-9.674l1.066-1.01v12.284H3.198V6.969zm4.798 6.93a1.598 1.598 0 101.107 2.749l1.853.93a.532.532 0 00.636-.123l3.939-4.431 3.872 2.901a.533.533 0 00.686-.039l3.365-3.188v8.131H5.33V8.569h18.124v2.66l-3.771 3.572-3.904-2.927a.533.533 0 00-.718.072l-3.993 4.493-1.493-.746c.011-.064.018-.129.02-.193a1.6 1.6 0 00-1.599-1.599zm.533 1.599a.533.533 0 11-1.067 0 .533.533 0 011.067 0zm3.198 8.528h5.331v.533a.533.533 0 01-.533.533h-4.264a.533.533 0 01-.533-.533v-.533zm-10.661.534c0-.294.239-.533.533-.533h9.062v.533a1.6 1.6 0 001.599 1.599h4.264a1.6 1.6 0 001.599-1.599v-.533h9.062c.294 0 .533.239.533.533v2.132a.533.533 0 01-.533.533H1.598a.533.533 0 01-.533-.533V24.56z"/></symbol><symbol id="clock" viewBox="0 0 32 32"><path fill="var(--color3, #212121)" d="M31.297 15.301C31.295 6.849 24.442-.002 15.989 0S.686 6.855.688 15.308a15.304 15.304 0 0010.649 14.576.662.662 0 00.529-.065.637.637 0 00.283-.356l3.865-12.25a1.912 1.912 0 10-.84-3.635l-5.106-5.107a.637.637 0 00-.902.902l5.103 5.109a1.876 1.876 0 00.536 2.309l-3.683 11.673C3.844 25.783.118 17.71 2.799 10.432S13.553-.572 20.831 2.109s11.004 10.754 8.323 18.032a14.042 14.042 0 01-7.462 7.973l-.398-1.874a.638.638 0 00-1.048-.344l-3.837 3.426a.637.637 0 00.231 1.084l4.899 1.563a.638.638 0 00.819-.74l-.391-1.839a15.255 15.255 0 009.329-14.089zm-15.305-.637a.638.638 0 110 1.277.638.638 0 010-1.277zm2.101 14.864l2.184-1.948.603 2.84-2.787-.892z"/><path fill="var(--color2, #2196f3)" d="M15.354 3.185V4.46a.638.638 0 101.276 0V3.185a.638.638 0 00-1.276 0zM3.876 14.664a.638.638 0 000 1.276h1.275a.638.638 0 100-1.276H3.876zM28.108 15.939a.638.638 0 100-1.276h-1.275a.638.638 0 000 1.276h1.275z"/></symbol><symbol id="antenna" viewBox="0 0 32 32"><path fill="var(--color3, #212121)" d="M30.773 22.098l-8.443-8.505.937-4.615c.242.094.499.144.758.146h.006a2.159 2.159 0 10-2.008-1.435l-4.96.605L8.972.161a.534.534 0 00-.377-.16.532.532 0 00-.373.155L6.709 1.66a.534.534 0 000 .754l.814.826a14.943 14.943 0 002.519 17.663.513.513 0 00.146.098c-.034.18-.051.364-.052.547v6.187h-6.4a2.67 2.67 0 00-2.667 2.667v1.067c0 .295.239.533.533.533h24.533a.533.533 0 00.533-.533v-1.067a2.67 2.67 0 00-2.667-2.667h-6.4v-2.742a15.09 15.09 0 003.049.32 14.854 14.854 0 007.04-1.783l.818.823a.534.534 0 00.377.16.532.532 0 00.373-.155l1.513-1.504a.534.534 0 000-.754zM23.28 6.233a1.066 1.066 0 11.752 1.822h-.003a1.067 1.067 0 01-.747-1.823h-.002zm-1.256 3.505l-.598 2.946-1.175-1.182 1.774-1.763zm-.605-.902l-1.92 1.909-1.485-1.493 3.405-.415zM24.004 28.8a1.6 1.6 0 011.6 1.6v.533H2.137V30.4a1.6 1.6 0 011.6-1.6h20.267zm-7.467-2.133v1.067h-5.333v-1.067h5.333zM11.204 25.6v-4.053c0-1.294 1.196-2.347 2.667-2.347s2.667 1.053 2.667 2.347V25.6h-5.333zm6.4-1.696v-2.357c0-1.882-1.675-3.413-3.733-3.413a3.8 3.8 0 00-3.281 1.786A13.87 13.87 0 018.311 4.033l18.602 18.708a13.818 13.818 0 01-9.309 1.163zm11.289-.684L7.836 2.039l.755-.752 7.935 7.98c.004 0 .006.007.01.01l13.115 13.191-.757.752z"/><path fill="var(--color2, #2196f3)" d="M13.876 20.267h-.005a1.6 1.6 0 10-.004 3.2h.005a1.6 1.6 0 10.004-3.2zm.373 1.978a.534.534 0 01-.752-.756.534.534 0 01.373-.155.533.533 0 01.373.911h.005z"/></symbol><symbol id="smartphone" viewBox="0 0 32 32"><path d="M23.467 0H8.534c-1.765 0-3.2 1.34-3.2 2.987v25.889c0 1.647 1.435 2.987 3.2 2.987h14.933c1.765 0 3.2-1.34 3.2-2.987V2.987c0-1.647-1.435-2.987-3.2-2.987zM8.533 1.991h14.933c.589 0 1.067.446 1.067.996v20.91H7.466V2.987c0-.549.478-.996 1.067-.996zm14.934 27.881H8.534c-.589 0-1.067-.446-1.067-.996v-2.987h17.067v2.987c0 .55-.478.996-1.067.996z"/><path d="M10.354 27.177c.417.389.417 1.02 0 1.409s-1.092.389-1.508 0c-.417-.389-.417-1.02 0-1.409s1.092-.389 1.508 0z"/></symbol><symbol id="envelope" viewBox="0 0 32 32"><path d="M29 4H3C1.346 4 0 5.256 0 6.801v16.803c0 1.544 1.346 2.801 3 2.801h26c1.654 0 3-1.256 3-2.801V6.801C32 5.257 30.654 4 29 4zm0 1.867c.136 0 .265.026.383.072L16 16.767 2.617 5.939c.118-.046.247-.072.383-.072h26zm0 18.67H3c-.552 0-1-.418-1-.934V7.911l13.345 10.796c.188.152.422.228.655.228s.467-.076.655-.228L30 7.911v15.692c0 .515-.448.934-1 .934z"/></symbol></defs></svg>